<svg width="154" height="17" fill="none" xmlns="http://www.w3.org/2000/svg"><g clip-path="url(#clip0)" fill="#231F20"><path d="M107.211 17h-.593L98.291.225h3.665l5.011 10.627h.039L112.01.224h3.548L107.211 17zM32.325.223V2.96h-8.057v4.132h7.529v2.639h-7.529v4.202h8.792v2.738H21.08V.222h11.245zM71.859.223V2.96h-8.054v4.251h7.526V9.85h-7.527v4.084h8.789v2.738H60.614V.222h11.245zM132.335.223V2.96h-8.055v4.285h7.528v2.638h-7.528v4.05h8.791v2.738H121.09V.222h11.245zM140.001 16.672V.222h5.571c5.573 0 8.428 3.406 8.428 8.226s-2.855 8.224-8.428 8.224h-5.571zm5.571-2.698c3.624 0 5.257-1.831 5.257-5.526 0-3.696-1.633-5.537-5.257-5.537h-2.382v11.063h2.382zM52.601 1.976l-1.503 2.098c-1.336-.876-2.748-1.38-4.476-1.38-2.382 0-3.09.914-3.09 1.78 0 2.94 9.553 1.231 9.553 7.047 0 3.174-2.735 5.38-6.6 5.38-2.681 0-4.994-.832-6.875-2.952l1.717-1.998c1.58 1.486 3.163 2.239 5.208 2.239 2.378 0 3.548-1.145 3.548-2.398 0-3.52-9.8-1.146-9.8-7.154C40.284 2.001 42.92 0 46.665 0c2.412 0 4.636.852 5.937 1.976zM6.721 8.136H3.187v-5.28h3.502c2.01 0 2.936.985 2.936 2.532 0 1.935-1.256 2.748-2.904 2.748zm7.761 8.479l-.278-2.412c-.248.052-.55.078-.888.078-1.34 0-2.01-.41-2.814-1.68-.299-.472-.623-1.046-.9-1.495-.317-.501-.524-.72-.835-.919 2.352-.565 4.008-2.298 4.008-4.912 0-2.923-2.09-5.05-6.086-5.05H0v16.447h3.187v-6.037H4.62c.812 0 1.18.293 1.524.824.33.51 1.457 2.38 1.457 2.38 1.425 2.261 3.005 3.018 5.128 3.018.764 0 1.4-.129 1.753-.242zM87.155 8.136H83.62v-5.28h3.502c2.01 0 2.935.985 2.935 2.532 0 1.935-1.255 2.748-2.903 2.748zm7.76 8.479l-.278-2.412a4.402 4.402 0 01-.888.078c-1.339 0-2.01-.41-2.814-1.68-.297-.472-.623-1.046-.9-1.495-.317-.501-.524-.72-.835-.919 2.353-.565 4.008-2.298 4.008-4.912 0-2.923-2.088-5.05-6.085-5.05h-6.689v16.447h3.187v-6.037h1.433c.812 0 1.18.293 1.524.824.33.51 1.456 2.38 1.456 2.38 1.426 2.261 3.006 3.018 5.129 3.018.764 0 1.399-.129 1.753-.242z"/></g><defs><clipPath id="clip0"><path fill="#fff" d="M0 0h154v17H0z"/></clipPath></defs></svg>