<svg width="110" height="22" fill="none" xmlns="http://www.w3.org/2000/svg"><path fill-rule="evenodd" clip-rule="evenodd" d="M47.874 5.403c-.787-.444-1.973-.655-3.603-.655-2.227 0-4.3.477-5.076.777a.51.51 0 00-.377.466v.066l.222 1.121V7.2a.474.474 0 00.443.333l.133-.022.366-.089c.975-.244 2.438-.621 4.079-.621.997 0 1.662.089 2.106.277.731.289.742.766.753 1.553v1.187h-.443c-.809 0-2.383.034-3.935.289-2.372.366-4.323.943-4.323 4.26 0 4.216 3.847 4.216 5.698 4.227 1.252 0 2.405-.189 3.17-.344 1.718-.41 2.161-.965 2.139-2.707V8.531c0-1.065 0-2.396-1.352-3.128zM46.93 16.23a9.522 9.522 0 01-2.992.444v.11-.11c-1.696 0-3.359-.2-3.359-2.408 0-1.753.931-1.963 2.095-2.219l.078-.022c1.03-.222 3.635-.266 4.178-.277v4.482zm21.504-7.7v7.012c.033 1.742-.41 2.297-2.14 2.696-.753.166-1.906.355-3.159.355-1.85 0-5.697-.011-5.697-4.227-.01-3.317 1.94-3.894 4.323-4.26 1.552-.255 3.126-.3 3.924-.3h.443V8.642c0-.787-.01-1.264-.743-1.553-.443-.188-1.108-.277-2.105-.277-1.64 0-3.104.377-4.08.621l-.376.089a.443.443 0 01-.566-.31v-.023l-.221-1.12v-.067c0-.255.188-.422.366-.477.786-.289 2.86-.766 5.087-.766 1.63 0 2.804.222 3.603.666 1.352.721 1.352 2.053 1.34 3.118V8.53zM66.15 11.75c-.554 0-3.147.055-4.178.277l-.089.022c-1.164.255-2.084.466-2.095 2.22 0 2.207 1.663 2.407 3.37 2.418v.1-.111a9.522 9.522 0 002.992-.444v-4.482zm37.099-7c-5.354 0-5.808 3.583-5.808 6.933 0 3.34.454 6.9 5.808 6.912 5.353-.011 5.808-3.561 5.819-6.912 0-3.506-.466-6.923-5.819-6.934zm0 11.881c-3.248 0-3.414-1.708-3.436-4.948.033-3.261.188-4.959 3.436-4.981 3.247.022 3.414 1.72 3.436 4.981-.022 3.24-.189 4.937-3.436 4.948zm-9.61 1.465l-.133.044c-.754.189-1.774.444-3.58.444-4.955 0-5.93-2.54-5.93-6.923 0-5.037 1.574-6.9 5.786-6.912 1.485 0 2.516.2 3.247.378v-4.05c-.01-.177.067-.41.477-.488l1.319-.344h.077c.3 0 .41.277.41.51v15.222c.012.965-.1 1.786-1.662 2.119h-.011zm-.62-11.017c-.444-.11-1.663-.4-3.049-.4-2.527.023-3.602.722-3.624 5.004.033 4.704 1.407 4.96 3.657 4.982v.1-.111a11.6 11.6 0 003.015-.411V7.078zM81.203 18.272h-1.175a.554.554 0 01-.555-.554V8.665c-.022-1.52-.476-1.953-2.106-1.975-1.817 0-3.68.466-4.29.643v10.362c0 .333-.22.566-.52.566H71.35a.554.554 0 01-.554-.555V7.577c-.012-.932.066-1.575 1.385-2.008 1.253-.443 3.658-.82 5.243-.82 3.026 0 4.323 1.109 4.323 3.716v9.253a.555.555 0 01-.555.554h.012zm-26.669.244c.687-.01 1.186-.144 1.375-.377a.343.343 0 00.1-.255c0-.078 0-.078-.189-.965v-.022c-.055-.222-.21-.333-.344-.333h-.354c-.488-.011-.887-.089-.887-.799V.755c0-.245-.155-.511-.443-.511h-.078l-1.33.344a.478.478 0 00-.444.488V15.81c0 1.742.932 2.707 2.594 2.707zm-18.621-.244H26.47a.554.554 0 01-.554-.554v-1.176c0-.289.089-.422.266-.644l7.515-8.875h-7.37a.554.554 0 01-.555-.555v-.843c0-.322.244-.555.554-.555h9.544c.321 0 .554.244.554.555v1.198c0 .222-.067.4-.233.6l-7.537 8.897h7.271a.55.55 0 01.554.554v.844a.555.555 0 01-.554.554h-.011z" fill="#1D1D1B"/><path fill-rule="evenodd" clip-rule="evenodd" d="M4.38 22c-.81 0-1.253-.2-1.486-.333-.332-.2-.942-.688-1.485-2.141a24.817 24.817 0 01-1.408-8.51v-.01c.023-3.35.544-6.202 1.408-8.532C1.974 1.032 2.562.521 2.894.333 3.127.189 3.57 0 4.37 0c.31 0 .665.033 1.086.1 2.427.4 5.098 1.364 7.98 3.018a24.18 24.18 0 016.562 5.502c.964 1.22 1.075 1.997 1.075 2.375 0 .388-.11 1.164-1.075 2.374a24.166 24.166 0 01-6.562 5.502h-.01a23.819 23.819 0 01-7.97 3.03 6.854 6.854 0 01-1.075.088" fill="#FF6900"/></svg>