<svg width="110" height="22" viewBox="0 0 110 22" fill="none" xmlns="http://www.w3.org/2000/svg">
<path fill-rule="evenodd" clip-rule="evenodd" d="M47.8737 5.40289C47.0867 4.95912 45.9007 4.74833 44.2714 4.74833C42.0435 4.74833 39.9707 5.22538 39.1949 5.52493C39.091 5.55287 38.9985 5.61299 38.9309 5.69668C38.8632 5.78038 38.8237 5.88336 38.818 5.99089V6.05746L39.0397 7.17798V7.20017C39.1173 7.42205 39.3057 7.533 39.483 7.533L39.616 7.51081L39.9818 7.42206C40.9572 7.17798 42.4203 6.80077 44.0608 6.80077C45.0583 6.80077 45.7234 6.88953 46.1667 7.07813C46.8983 7.36658 46.9094 7.84364 46.9205 8.63133V9.81842H46.4771C45.668 9.81842 44.094 9.85171 42.5422 10.1069C40.1703 10.473 38.2195 11.0499 38.2195 14.3671C38.2195 18.5829 42.0656 18.5829 43.9167 18.594C45.1692 18.594 46.3219 18.4054 47.0867 18.2501C48.8047 17.8396 49.2481 17.2849 49.2259 15.5431V8.53149C49.2259 7.46643 49.2259 6.13512 47.8737 5.40289ZM46.9315 16.2309C45.9639 16.5374 44.9536 16.6872 43.9388 16.6747V16.7856V16.6747C42.243 16.6747 40.5804 16.475 40.5804 14.2672C40.5804 12.5143 41.5114 12.3035 42.6753 12.0484L42.7528 12.0262C43.7837 11.8043 46.3884 11.7599 46.9315 11.7488V16.2309ZM68.4347 8.53149V15.5431C68.4679 17.2849 68.0245 17.8396 66.2954 18.239C65.5417 18.4054 64.389 18.594 63.1365 18.594C61.2854 18.594 57.4392 18.5829 57.4392 14.3671C57.4282 11.0499 59.379 10.473 61.762 10.1069C63.3138 9.85171 64.8877 9.80733 65.6858 9.80733H66.1292V8.64243C66.1292 7.85473 66.1181 7.37768 65.3865 7.08923C64.9432 6.90062 64.2781 6.81187 63.2806 6.81187C61.6401 6.81187 60.177 7.18907 59.2016 7.43315L58.8248 7.5219C58.7673 7.54047 58.7066 7.54709 58.6465 7.54136C58.5864 7.53563 58.5281 7.51767 58.4752 7.48859C58.4223 7.4595 58.3758 7.4199 58.3387 7.37221C58.3016 7.32453 58.2747 7.26976 58.2595 7.21126V7.18907L58.0378 6.06855V6.00198C58.0378 5.74682 58.2262 5.5804 58.4036 5.52493C59.1905 5.23648 61.2633 4.75942 63.4911 4.75942C65.1205 4.75942 66.2954 4.98131 67.0935 5.42508C68.4457 6.14621 68.4457 7.47753 68.4347 8.54258V8.53149ZM66.1513 11.7488C65.5971 11.7488 63.0035 11.8043 61.9726 12.0262L61.884 12.0484C60.7201 12.3035 59.8002 12.5143 59.7891 14.2672C59.7891 16.475 61.4517 16.6747 63.1586 16.6858V16.7856V16.6747C64.1734 16.6872 65.1837 16.5374 66.1513 16.2309V11.7488ZM103.25 4.74833C97.8961 4.74833 97.4417 8.33179 97.4417 11.6823C97.4417 15.0217 97.8961 18.5829 103.25 18.594C108.603 18.5829 109.058 15.0327 109.069 11.6823C109.069 8.17647 108.603 4.75942 103.25 4.74833ZM103.25 16.6303C100.002 16.6303 99.8359 14.9218 99.8137 11.6823C99.8469 8.42054 100.002 6.72311 103.25 6.70093C106.497 6.72311 106.664 8.42054 106.686 11.6823C106.664 14.9218 106.497 16.6192 103.25 16.6303ZM93.6398 18.0948L93.5068 18.1391C92.7531 18.3278 91.7334 18.5829 89.9267 18.5829C84.9721 18.5829 83.9967 16.0423 83.9967 11.6601C83.9967 6.62327 85.5706 4.75942 89.7826 4.74833C91.2679 4.74833 92.2987 4.94803 93.0302 5.12553V1.07611C93.0191 0.898605 93.0967 0.665625 93.5068 0.587965L94.8258 0.244041H94.9034C95.2027 0.244041 95.3135 0.521399 95.3135 0.754379V15.9758C95.3246 16.941 95.2138 17.7619 93.6509 18.0948H93.6398ZM93.0191 7.07813C92.5758 6.96719 91.3565 6.67874 89.971 6.67874C87.4438 6.70093 86.3687 7.39987 86.3465 11.6823C86.3798 16.3863 87.7542 16.6414 90.0043 16.6636V16.7635V16.6525C91.4009 16.6525 92.5979 16.3641 93.0191 16.242V7.07813ZM81.2035 18.2723H80.0286C79.8816 18.2723 79.7407 18.2138 79.6367 18.1098C79.5328 18.0058 79.4744 17.8647 79.4744 17.7176V8.66462C79.4522 7.1447 78.9978 6.71202 77.3684 6.68983C75.5506 6.68983 73.6885 7.15579 73.0789 7.3333V17.6954C73.0789 18.0282 72.8572 18.2612 72.5579 18.2612H71.3498C71.2028 18.2612 71.0618 18.2027 70.9579 18.0987C70.8539 17.9947 70.7956 17.8536 70.7956 17.7065V7.57737C70.7845 6.64545 70.8621 6.00198 72.1811 5.56931C73.4336 5.12553 75.8388 4.74833 77.4238 4.74833C80.4498 4.74833 81.7466 5.85776 81.7466 8.46492V17.7176C81.7466 17.8647 81.6882 18.0058 81.5843 18.1098C81.4804 18.2138 81.3394 18.2723 81.1924 18.2723H81.2035ZM54.5352 18.5164C55.2224 18.5053 55.7212 18.3721 55.9096 18.1391C55.9429 18.1057 55.9688 18.0658 55.986 18.0219C56.0032 17.978 56.0111 17.9311 56.0094 17.884C56.0094 17.8063 56.0094 17.8063 55.821 16.9188V16.8966C55.7656 16.6747 55.6104 16.5638 55.4774 16.5638H55.1227C54.635 16.5527 54.2359 16.475 54.2359 15.765V0.754379C54.2359 0.510305 54.0808 0.244041 53.7926 0.244041H53.715L52.3849 0.587965C52.1632 0.610153 51.9415 0.776568 51.9415 1.07611V15.8093C51.9415 17.5512 52.8726 18.5164 54.5352 18.5164ZM35.914 18.2723H26.4703C26.3233 18.2723 26.1824 18.2138 26.0784 18.1098C25.9745 18.0058 25.9161 17.8647 25.9161 17.7176V16.5416C25.9161 16.2531 26.0048 16.12 26.1821 15.8981L33.6971 7.02266H26.3262C26.1793 7.02266 26.0383 6.96422 25.9344 6.86019C25.8304 6.75616 25.772 6.61506 25.772 6.46795V5.62478C25.772 5.30304 26.0159 5.07006 26.3262 5.07006H35.8696C36.1911 5.07006 36.4238 5.31414 36.4238 5.62478V6.82296C36.4238 7.04485 36.3573 7.22236 36.1911 7.42206L28.6539 16.3197H35.925C36.2354 16.3197 36.4793 16.5638 36.4793 16.8744V17.7176C36.4793 17.8647 36.4209 18.0058 36.3169 18.1098C36.213 18.2138 36.072 18.2723 35.925 18.2723H35.914Z" fill="#1D1D1B"/>
<path fill-rule="evenodd" clip-rule="evenodd" d="M4.37964 22C3.5705 22 3.12713 21.8003 2.89437 21.6672C2.56185 21.4675 1.95222 20.9793 1.4091 19.526C0.446822 16.7936 -0.0296107 13.9136 0.0014241 11.0166V11.0055C0.0235923 7.65507 0.544544 4.80383 1.4091 2.47403C1.97439 1.03177 2.56185 0.521432 2.89437 0.332829C3.12713 0.188603 3.5705 0 4.36855 0C4.67891 0 5.0336 0.0332829 5.45479 0.0998487C7.8822 0.499244 10.5535 1.46445 13.4353 3.1175C15.9322 4.54644 18.1543 6.40991 19.9971 8.62027C20.9614 9.84065 21.0723 10.6172 21.0723 10.9945C21.0723 11.3828 20.9614 12.1594 19.9971 13.3686C18.1545 15.5792 15.9324 17.4427 13.4353 18.8714H13.4242C10.9712 20.3522 8.27155 21.3782 5.45479 21.9002C5.0336 21.9667 4.67891 21.9889 4.37964 21.9889" fill="#FF6900"/>
</svg>
