<svg width="154" height="17" viewBox="0 0 154 17" fill="none" xmlns="http://www.w3.org/2000/svg">
<g clip-path="url(#clip0)">
<path d="M107.211 17H106.618L98.2909 0.224762H101.956L106.967 10.8515H107.006L112.01 0.224762H115.558L107.211 17Z" fill="#231F20"/>
<path d="M32.3245 0.222767V2.96132H24.2683V7.09337H31.7967V9.73176H24.2683V13.9342H33.0603V16.672H21.0796V0.222767H32.3245Z" fill="#231F20"/>
<path d="M71.8586 0.222767V2.96132H63.8045V7.21196H71.3308V9.84984H63.8045V13.9342H72.5927V16.672H60.614V0.222767H71.8586Z" fill="#231F20"/>
<path d="M132.335 0.222767V2.96132H124.28V7.24577H131.808V9.8839H124.28V13.9342H133.071V16.672H121.09V0.222767H132.335Z" fill="#231F20"/>
<path d="M140.001 16.672V0.222769H145.572C151.145 0.222769 154 3.62817 154 8.44751C154 13.2671 151.145 16.672 145.572 16.672H140.001ZM145.572 13.9741C149.196 13.9741 150.829 12.1428 150.829 8.44751C150.829 4.75195 149.196 2.91136 145.572 2.91136H143.19V13.9741H145.572Z" fill="#231F20"/>
<path d="M52.6011 1.97609L51.0977 4.07378C49.7621 3.19827 48.3501 2.69315 46.622 2.69315C44.2401 2.69315 43.5322 3.60777 43.5322 4.47343C43.5322 7.41409 53.0847 5.7052 53.0847 11.5212C53.0847 14.6949 50.3501 16.9006 46.4854 16.9006C43.8036 16.9006 41.4912 16.0693 39.6099 13.9486L41.3274 11.9513C42.9075 13.4374 44.4899 14.1896 46.5352 14.1896C48.9128 14.1896 50.0827 13.0451 50.0827 11.7919C50.0827 8.27194 40.2839 10.6457 40.2839 4.63819C40.2839 2.00081 42.9194 9.53674e-06 46.664 9.53674e-06C49.0761 9.53674e-06 51.3 0.851803 52.6011 1.97609Z" fill="#231F20"/>
<path d="M6.721 8.136H3.1869V2.85569H6.68905C8.69836 2.85569 9.62465 3.84146 9.62465 5.3876C9.62465 7.32256 8.36905 8.136 6.721 8.136ZM14.482 16.6148L14.2035 14.2028C13.9555 14.255 13.6544 14.281 13.3157 14.281C11.9766 14.281 11.3054 13.8702 10.5016 12.6003C10.2035 12.129 9.87899 11.5555 9.60176 11.1057C9.28453 10.6046 9.07773 10.3858 8.76654 10.187C11.1193 9.62184 12.7746 7.88874 12.7746 5.27533C12.7746 2.35208 10.6855 0.224874 6.68905 0.224874H-3.05176e-05V16.6721H3.1869V10.6349H4.62011C5.43219 10.6349 5.80074 10.9283 6.14439 11.4589C6.4742 11.9683 7.60075 13.8387 7.60075 13.8387C9.02616 16.1004 10.6063 16.8565 12.7291 16.8565C13.4933 16.8565 14.1283 16.7284 14.482 16.6148Z" fill="#231F20"/>
<path d="M87.1549 8.136H83.621V2.85569H87.1234C89.1325 2.85569 90.0583 3.84146 90.0583 5.3876C90.0583 7.32256 88.8029 8.136 87.1549 8.136ZM94.9159 16.6148L94.6372 14.2028C94.3891 14.255 94.0885 14.281 93.7494 14.281C92.41 14.281 91.7393 13.8702 90.9353 12.6003C90.6377 12.129 90.3124 11.5555 90.0351 11.1057C89.7182 10.6046 89.5114 10.3858 89.2004 10.187C91.5529 9.62184 93.2085 7.88874 93.2085 5.27533C93.2085 2.35208 91.1197 0.224874 87.1234 0.224874H80.4341V16.6721H83.621V10.6349H85.0537C85.8661 10.6349 86.2346 10.9283 86.578 11.4589C86.9083 11.9683 88.0344 13.8387 88.0344 13.8387C89.4598 16.1004 91.0404 16.8565 93.1627 16.8565C93.9267 16.8565 94.562 16.7284 94.9159 16.6148Z" fill="#231F20"/>
</g>
<defs>
<clipPath id="clip0">
<rect width="154" height="17" fill="white"/>
</clipPath>
</defs>
</svg>
